<svg width="128" height="128" viewBox="0 0 128 128" fill="none" xmlns="http://www.w3.org/2000/svg">
<path d="M0.300049 66.5002V56.9002C0.500049 56.8002 0.500049 56.6002 0.500049 56.4002C3.50005 43.3002 11.7001 35.4002 24.7001 32.3002C25.8001 32.0002 27 32.1002 28.1 31.7002H34.5C34.6 31.9002 34.9 31.8002 35.1 31.8002C41.5 32.5002 47.3001 34.8002 52.4001 38.8002C56.8001 42.1002 60.2 46.3002 63.3 50.8002C63.7 51.4002 63.9 51.4002 64.3 50.8002C66.1 48.2002 68 45.7002 70.2 43.4002C75.5 37.7002 81.9 33.7002 89.7 32.3002C90.8 32.0002 92.1 32.1002 93.2 31.7002H99.4C99.5 31.9002 99.7 31.8002 99.9 31.8002C101.8 32.0002 103.6 32.4002 105.4 32.9002C118.8 36.8002 128.3 49.1002 127.5 63.0002C126.9 74.7002 121 83.1002 110.7 88.4002C105.6 91.2002 100 91.9002 94.2 91.8002C86.6 91.7002 80 89.1002 74.3 84.1002C70.3 80.6002 67.2 76.4002 64.3 72.0002C63.9 71.4002 63.7 71.5002 63.3 72.1002C61.5 74.8002 59.6001 77.5002 57.4001 80.1002C53.5001 84.5002 49.0001 88.1002 43.4001 90.0002C36.5001 92.4002 29.5 92.5002 22.5 90.6002C12.4 87.7002 5.50005 81.3002 1.70005 71.5002C1.10005 69.9002 0.800049 68.1002 0.300049 66.5002ZM32.1 81.2002C37.8 81.4002 42.7001 79.5002 46.9001 75.6002C51.2001 71.6002 54.3001 66.6002 57.4001 61.7002C57.5001 61.4002 57.5 61.2002 57.3 60.9002C54.7 56.8002 52.0001 52.7002 48.4001 49.3002C41.5001 42.7002 33.4 40.5002 24.3 43.4002C16.8 45.9002 12 51.2002 10.9 59.2002C9.80005 66.7002 12.7001 72.7002 18.7001 77.2002C22.7001 80.1002 27.2 81.3002 32.1 81.2002ZM95.5 81.2002C97.7 81.2002 99.9 81.1002 102 80.5002C109.9 78.1002 115.1 73.2002 116.6 65.0002C118.1 56.9002 115 50.4002 108.2 45.8002C100.7 40.6002 89.8 41.1002 82.2 46.8002C77.1 50.6002 73.7 55.7002 70.3 61.0002C70.1 61.3002 70.2 61.5002 70.3 61.8002C73 66.1002 75.7 70.4002 79.2 74.1002C83.6 78.8002 88.9 81.5002 95.5 81.2002Z" fill="current"/>
<path d="M32 58.5001C35.2 58.5001 38.5001 58.6001 41.7001 58.5001C42.5001 58.5001 42.6 58.7001 42.6 59.5001C42.5 60.4001 42.5 61.3001 42.6 62.2001C42.7 63.0001 42.5 63.2001 41.6 63.2001H28.8C26.6 63.2001 24.4001 63.1001 22.2001 63.2001C21.5001 63.2001 21.3 63.0001 21.3 62.2001C21.4 61.3001 21.4 60.4001 21.3 59.4001C21.3 58.7001 21.5001 58.5001 22.2001 58.5001C25.4001 58.6001 28.7 58.5001 32 58.5001ZM95 52.1001C95.8 52.1001 96.6 52.2001 97.3 52.1001C97.8 52.1001 98 52.3001 98 52.8001C97.9 54.2001 98.0001 55.6001 97.9001 57.0001C97.9001 57.7001 98.1 57.9001 98.8 57.9001C100.1 57.8001 101.5 57.9001 102.9 57.8001C103.5 57.8001 103.7 57.9001 103.7 58.6001V63.2001C103.7 63.7001 103.5 63.9001 103 63.9001C101.6 63.8001 100.2 63.9001 98.7 63.8001C98.1 63.8001 97.9001 64.0001 97.9001 64.6001C98.0001 66.0001 97.9 67.4001 98 68.8001C98 69.4001 97.8 69.7001 97.2 69.7001C95.7 69.6001 94.2 69.6001 92.7 69.7001C92.1 69.7001 91.9001 69.5001 91.9001 68.9001C92.0001 67.4001 91.9 66.0001 92 64.5001C92 64.0001 91.8 63.8001 91.3 63.8001C89.9 63.9001 88.5001 63.8001 87.1001 63.9001C86.3001 63.9001 86.2 63.6001 86.2 63.0001C86.2 61.6001 86.3 60.2001 86.2 58.8001C86.1 58.0001 86.5 57.8001 87.2 57.8001C88.6 57.9001 89.9 57.8001 91.3 57.9001C91.8 57.9001 92 57.7001 92 57.2001C91.9 55.8001 92.0001 54.3001 91.9001 52.9001C91.9001 52.3001 92.1 52.1001 92.7 52.1001C93.5 52.2001 94.2 52.1001 95 52.1001Z" fill="current"/>
</svg>
