<svg width="44" height="44" viewBox="0 0 44 44" fill="none" xmlns="http://www.w3.org/2000/svg">
<path fill-rule="evenodd" clip-rule="evenodd" d="M22 37C30.2843 37 37 30.2843 37 22C37 13.7157 30.2843 7 22 7C13.7157 7 7 13.7157 7 22C7 30.2843 13.7157 37 22 37ZM22 34.907C29.1283 34.907 34.907 29.1283 34.907 22C34.907 14.8717 29.1283 9.09302 22 9.09302C14.8717 9.09302 9.09302 14.8717 9.09302 22C9.09302 29.1283 14.8717 34.907 22 34.907Z" fill="white"/>
<path d="M32.4651 22C32.4651 27.7797 27.7797 32.4651 22 32.4651C16.2203 32.4651 11.5349 27.7797 11.5349 22C11.5349 16.2203 16.2203 11.5349 22 11.5349C27.7797 11.5349 32.4651 16.2203 32.4651 22Z" fill="white"/>
</svg>
