<svg width="44" height="44" viewBox="0 0 44 44" fill="current" xmlns="http://www.w3.org/2000/svg">
<path d="M23.875 23.9062V18C23.875 17.4688 23.695 17.0238 23.335 16.665C22.975 16.3063 22.53 16.1262 22 16.125C21.47 16.1238 21.025 16.3038 20.665 16.665C20.305 17.0263 20.125 17.4712 20.125 18V23.9062L18.4375 22.2656C18.0937 21.9219 17.6644 21.75 17.1494 21.75C16.6344 21.75 16.1887 21.9375 15.8125 22.3125C15.4687 22.6563 15.2969 23.0938 15.2969 23.625C15.2969 24.1562 15.4687 24.5937 15.8125 24.9375L20.6875 29.8125C21.0625 30.1875 21.5 30.375 22 30.375C22.5 30.375 22.9375 30.1875 23.3125 29.8125L28.1875 24.9375C28.5312 24.5937 28.7106 24.1644 28.7256 23.6494C28.7406 23.1344 28.5612 22.6888 28.1875 22.3125C27.8437 21.9688 27.4144 21.7888 26.8994 21.7725C26.3844 21.7563 25.9387 21.9206 25.5625 22.2656L23.875 23.9062ZM10.75 40.5C9.71875 40.5 8.83625 40.1331 8.1025 39.3994C7.36875 38.6656 7.00125 37.7825 7 36.75V15.7969C7 15.2969 7.09375 14.8206 7.28125 14.3681C7.46875 13.9156 7.73437 13.5169 8.07812 13.1719L17.1719 4.07813C17.5156 3.73438 17.9144 3.46875 18.3681 3.28125C18.8219 3.09375 19.2981 3 19.7969 3H33.25C34.2812 3 35.1644 3.3675 35.8994 4.1025C36.6344 4.8375 37.0012 5.72 37 6.75V36.75C37 37.7813 36.6331 38.6644 35.8994 39.3994C35.1656 40.1344 34.2825 40.5012 33.25 40.5H10.75ZM10.75 36.75H33.25V6.75H19.8437L10.75 15.8438V36.75Z" fill="current"/>
</svg>
