<svg width="44" height="44" viewBox="0 0 44 44" fill="current" xmlns="http://www.w3.org/2000/svg">
<path d="M27.5001 27.3337C30.7217 27.3337 33.3334 24.722 33.3334 21.5003C33.3334 18.2787 30.7217 15.667 27.5001 15.667C24.2784 15.667 21.6667 18.2787 21.6667 21.5003C21.6667 24.722 24.2784 27.3337 27.5001 27.3337Z" fill="current"/>
<path fill-rule="evenodd" clip-rule="evenodd" d="M15.8333 39C17.3804 39 18.8642 38.3854 19.9581 37.2915C21.0521 36.1975 21.6667 34.7138 21.6667 33.1667V27.3333H15.8333C14.2862 27.3333 12.8025 27.9479 11.7085 29.0419C10.6146 30.1358 10 31.6196 10 33.1667C10 34.7138 10.6146 36.1975 11.7085 37.2915C12.8025 38.3854 14.2862 39 15.8333 39ZM15.8333 27.3333H21.6667V15.6667H15.8333C14.2862 15.6667 12.8025 16.2812 11.7085 17.3752C10.6146 18.4692 10 19.9529 10 21.5C10 23.0471 10.6146 24.5308 11.7085 25.6248C12.8025 26.7188 14.2862 27.3333 15.8333 27.3333ZM15.8333 15.6667H21.6667V4H15.8333C14.2862 4 12.8025 4.61458 11.7085 5.70854C10.6146 6.80251 10 8.28624 10 9.83333C10 11.3804 10.6146 12.8642 11.7085 13.9581C12.8025 15.0521 14.2862 15.6667 15.8333 15.6667ZM27.5 15.6667H21.6667V4H27.5C29.0471 4 30.5308 4.61458 31.6248 5.70854C32.7188 6.80251 33.3333 8.28624 33.3333 9.83333C33.3333 11.3804 32.7188 12.8642 31.6248 13.9581C30.5308 15.0521 29.0471 15.6667 27.5 15.6667Z" fill="current"/>
</svg>
