<svg width="44" height="44" viewBox="0 0 44 44" fill="current" xmlns="http://www.w3.org/2000/svg">
<path fill-rule="evenodd" clip-rule="evenodd" d="M21.9986 7C13.7173 7 7 13.7159 7 22C7 28.6273 11.2982 34.2495 17.2586 36.2323C18.0086 36.3714 18.2814 35.9077 18.2814 35.5095C18.2814 35.155 18.2691 34.2114 18.2623 32.9595C14.0895 33.865 13.2086 30.9482 13.2086 30.9482C12.5268 29.2164 11.5436 28.7527 11.5436 28.7527C10.1814 27.8241 11.6459 27.8418 11.6459 27.8418C13.1527 27.9482 13.9436 29.3882 13.9436 29.3882C15.2814 31.6791 17.455 31.0177 18.31 30.6345C18.4464 29.6664 18.8336 29.005 19.2618 28.63C15.9318 28.2509 12.43 26.9636 12.43 21.2159C12.43 19.5795 13.0136 18.2391 13.9736 17.1905C13.8182 16.8114 13.3041 15.2855 14.1209 13.2223C14.1209 13.2223 15.3795 12.8173 18.2459 14.7591C19.4695 14.426 20.7319 14.2563 22 14.2545C23.2687 14.2554 24.5315 14.4251 25.7555 14.7591C28.6191 12.8173 29.8764 13.2209 29.8764 13.2209C30.6945 15.2855 30.1805 16.8114 30.0264 17.1905C30.9877 18.2391 31.5673 19.5782 31.5673 21.2159C31.5673 26.9786 28.06 28.2468 24.7191 28.6177C25.2577 29.0814 25.7377 29.995 25.7377 31.3955C25.7377 33.4 25.7186 35.0186 25.7186 35.5095C25.7186 35.9118 25.99 36.3782 26.7495 36.2323C32.7059 34.2441 37 28.6259 37 22C37 13.7159 30.2827 7 21.9986 7Z" fill="current"/>
</svg>
