<svg width="44" height="44" viewBox="0 0 44 44" fill="none" xmlns="http://www.w3.org/2000/svg">
<path fill-rule="evenodd" clip-rule="evenodd" d="M37 12.8896C35.8767 13.3874 34.6851 13.7139 33.465 13.8583C34.7502 13.0891 35.712 11.879 36.1712 10.4533C34.963 11.1707 33.6411 11.6763 32.2625 11.9483C31.3358 10.9587 30.1082 10.3026 28.7705 10.082C27.4327 9.86145 26.0595 10.0887 24.8641 10.7284C23.6687 11.3681 22.7179 12.3846 22.1593 13.62C21.6008 14.8555 21.4657 16.2407 21.775 17.5608C19.3275 17.4385 16.9331 16.8026 14.7475 15.6943C12.5618 14.5861 10.6338 13.0304 9.08875 11.1283C8.54114 12.0677 8.25338 13.1359 8.255 14.2233C8.255 16.3583 9.34125 18.2433 10.9937 19.3471C10.0164 19.3154 9.06053 19.0519 8.205 18.5783V18.6533C8.20481 20.0747 8.69641 21.4525 9.59637 22.5527C10.4963 23.6529 11.7492 24.4079 13.1425 24.6896C12.2358 24.9349 11.2853 24.9713 10.3625 24.7958C10.7558 26.0188 11.5214 27.0884 12.5524 27.8549C13.5833 28.6214 14.8281 29.0465 16.1125 29.0708C13.932 30.7809 11.2399 31.7085 8.46875 31.7046C7.97125 31.7046 7.48125 31.6758 7 31.6196C9.81454 33.4275 13.0898 34.3873 16.435 34.3846C27.7563 34.3846 33.9462 25.0058 33.9462 16.8721C33.9462 16.6058 33.94 16.3408 33.9287 16.0771C35.1338 15.2055 36.1738 14.1261 37 12.8896Z" fill="white"/>
</svg>
