<svg width="44" height="44" viewBox="0 0 44 44" fill="current" xmlns="http://www.w3.org/2000/svg">
<path fill-rule="evenodd" clip-rule="evenodd" d="M18.9025 25.4413V17.0125L27.0075 21.2413L18.9025 25.4413ZM36.7 15.5513C36.7 15.5513 36.4062 13.4838 35.5075 12.5738C34.3662 11.3787 33.0875 11.3738 32.5012 11.3038C28.3037 11 22.0063 11 22.0063 11H21.9937C21.9937 11 15.6963 11 11.4987 11.3038C10.9112 11.3725 9.63375 11.3787 8.49125 12.5738C7.5925 13.4838 7.3 15.5513 7.3 15.5513C7.3 15.5513 7 17.98 7 20.4063V22.6838C7 25.1113 7.3 27.5388 7.3 27.5388C7.3 27.5388 7.5925 29.605 8.49125 30.5163C9.63375 31.7113 11.1325 31.6738 11.8 31.7988C14.2 32.0288 22 32.1 22 32.1C22 32.1 28.3037 32.0913 32.5012 31.7875C33.0887 31.7175 34.3662 31.7113 35.5075 30.5163C36.4075 29.605 36.7 27.5388 36.7 27.5388C36.7 27.5388 37 25.1113 37 22.6825V20.4075C37 17.98 36.7 15.5513 36.7 15.5513Z" fill="current"/>
</svg>
