<svg id="visual" viewBox="0 0 2560 8000" width="2560" height="8000" xmlns="http://www.w3.org/2000/svg" xmlns:xlink="http://www.w3.org/1999/xlink" version="1.1"><g><g transform="translate(1721 1641)"><path d="M51.2 -46.3C74.2 -28.1 106.4 -14 119.1 12.7C131.8 39.5 125.1 78.9 102 95.3C78.9 111.7 39.5 105 3.1 101.9C-33.2 98.7 -66.4 99.1 -87.3 82.7C-108.3 66.4 -117.1 33.2 -120.8 -3.7C-124.5 -40.6 -123.2 -81.2 -102.2 -99.4C-81.2 -117.7 -40.6 -113.5 -13.3 -100.2C14 -86.9 28.1 -64.5 51.2 -46.3Z" stroke="#3d3d3d" fill="none" stroke-width="3"></path></g><g transform="translate(1472 3893)"><path d="M74.6 -75.4C92 -57.1 98.3 -28.6 90.1 -8.2C82 12.2 59.3 24.4 41.8 37.6C24.4 50.7 12.2 64.9 -5.7 70.6C-23.7 76.3 -47.3 73.7 -66.8 60.5C-86.3 47.3 -101.6 23.7 -104 -2.4C-106.4 -28.4 -95.8 -56.8 -76.3 -75C-56.8 -93.3 -28.4 -101.4 0.1 -101.5C28.6 -101.6 57.1 -93.6 74.6 -75.4Z" stroke="#3d3d3d" fill="none" stroke-width="3"></path></g><g transform="translate(455 3678)"><path d="M43.3 -43.6C51.1 -35.6 48.9 -17.8 53.5 4.6C58.1 27 69.5 54 61.8 67.2C54 80.4 27 79.9 5.8 74C-15.4 68.2 -30.7 57.1 -37.7 43.9C-44.7 30.7 -43.4 15.4 -41.7 1.7C-40 -12 -38 -24 -31 -32C-24 -40 -12 -44 2.9 -46.9C17.8 -49.8 35.6 -51.6 43.3 -43.6Z" stroke="#3d3d3d" fill="none" stroke-width="3"></path></g><g transform="translate(1158 1545)"><path d="M69.3 -83.7C77.6 -61 63.6 -30.5 63 -0.6C62.4 29.3 75.1 58.6 66.9 72.3C58.6 86 29.3 84.2 8.5 75.7C-12.2 67.2 -24.5 52 -35.2 38.2C-45.9 24.5 -55 12.2 -54 1.1C-52.9 -10.1 -41.7 -20.3 -31 -43C-20.3 -65.8 -10.1 -101.1 10.2 -111.3C30.5 -121.5 61 -106.5 69.3 -83.7Z" stroke="#3d3d3d" fill="none" stroke-width="3"></path></g><g transform="translate(675 1525)"><path d="M52.3 -58.7C60.4 -44.1 54.6 -22.1 55.3 0.7C56 23.4 63.1 46.8 55 75.5C46.8 104.2 23.4 138.1 6.1 132.1C-11.3 126 -22.6 79.9 -40.2 51.3C-57.8 22.6 -81.7 11.3 -95.7 -13.9C-109.6 -39.2 -113.6 -78.4 -96 -93C-78.4 -107.6 -39.2 -97.6 -8.6 -89C22.1 -80.5 44.1 -73.3 52.3 -58.7Z" stroke="#3d3d3d" fill="none" stroke-width="3"></path></g><g transform="translate(495 7700)"><path d="M49 -50.5C60.9 -37 66.2 -18.5 69.2 3C72.2 24.5 72.8 48.9 60.8 76.5C48.9 104.1 24.5 134.9 -5.4 140.3C-35.2 145.7 -70.4 125.6 -84.2 98C-98 70.4 -90.3 35.2 -79.1 11.3C-67.8 -12.6 -52.8 -25.2 -39 -38.7C-25.2 -52.1 -12.6 -66.4 2.9 -69.3C18.5 -72.3 37 -63.9 49 -50.5Z" stroke="#3d3d3d" fill="none" stroke-width="3"></path></g><g transform="translate(1676 7263)"><path d="M57.7 -52.4C78.5 -36.9 101.5 -18.5 105.2 3.7C109 25.9 93.4 51.8 72.6 66.1C51.8 80.4 25.9 83 -2.2 85.2C-30.4 87.4 -60.8 89.3 -80.9 75.1C-101.1 60.8 -111 30.4 -110.2 0.8C-109.4 -28.8 -97.9 -57.6 -77.8 -73.1C-57.6 -88.6 -28.8 -90.6 -5.2 -85.5C18.5 -80.3 36.9 -67.9 57.7 -52.4Z" stroke="#3d3d3d" fill="none" stroke-width="3"></path></g><g transform="translate(416 6194)"><path d="M41.1 -48.1C59.1 -23.1 83.6 -11.6 97.7 14.1C111.7 39.7 115.4 79.4 97.4 104.4C79.4 129.5 39.7 140 2.2 137.8C-35.2 135.6 -70.5 120.6 -93.3 95.5C-116.2 70.5 -126.8 35.2 -121.5 5.3C-116.1 -24.6 -95 -49.2 -72.1 -74.2C-49.2 -99.2 -24.6 -124.7 -6.5 -118.2C11.6 -111.7 23.1 -73.2 41.1 -48.1Z" stroke="#3d3d3d" fill="none" stroke-width="3"></path></g><g transform="translate(1238 6200)"><path d="M58.9 -59.1C77.2 -40.6 93.6 -20.3 97.5 3.9C101.4 28.2 93 56.4 74.7 69.2C56.4 82 28.2 79.5 -0.2 79.7C-28.6 79.9 -57.3 82.9 -63.3 70.1C-69.3 57.3 -52.7 28.6 -50.9 1.7C-49.2 -25.2 -62.3 -50.3 -56.3 -68.8C-50.3 -87.3 -25.2 -99.2 -2.4 -96.8C20.3 -94.3 40.6 -77.6 58.9 -59.1Z" stroke="#3d3d3d" fill="none" stroke-width="3"></path></g><g transform="translate(421 387)"><path d="M82.9 -84.9C92.1 -73.7 73.7 -36.8 60.3 -13.5C46.8 9.9 38.3 19.9 29.1 40C19.9 60.2 9.9 90.6 -1.6 92.2C-13.1 93.8 -26.2 66.6 -46.5 46.4C-66.7 26.2 -94.1 13.1 -106.8 -12.7C-119.6 -38.6 -117.7 -77.2 -97.4 -88.4C-77.2 -99.7 -38.6 -83.6 -0.9 -82.7C36.8 -81.9 73.7 -96.2 82.9 -84.9Z" stroke="#3d3d3d" fill="none" stroke-width="3"></path></g><g transform="translate(2305 3535)"><path d="M57.8 -54.4C75.3 -40.2 90.3 -20.1 92.2 1.8C94 23.8 82.7 47.5 65.1 54.1C47.5 60.6 23.8 49.9 2.9 47C-18 44.2 -36.1 49.2 -54.5 42.6C-72.8 36.1 -91.5 18 -98.1 -6.6C-104.8 -31.3 -99.3 -62.6 -81 -76.8C-62.6 -91 -31.3 -88.1 -5.6 -82.5C20.1 -76.9 40.2 -68.6 57.8 -54.4Z" stroke="#3d3d3d" fill="none" stroke-width="3"></path></g><g transform="translate(939 5499)"><path d="M42.1 -45.9C58.2 -26 77.4 -13 79.2 1.9C81.1 16.7 65.6 33.5 49.5 47.2C33.5 61 16.7 71.8 1.9 69.9C-13 68.1 -26 53.5 -39 39.8C-52 26 -65 13 -63.1 1.9C-61.1 -9.1 -44.3 -18.3 -31.3 -38.1C-18.3 -57.9 -9.1 -88.4 1.9 -90.3C13 -92.3 26 -65.7 42.1 -45.9Z" stroke="#3d3d3d" fill="none" stroke-width="3"></path></g><g transform="translate(1991 823)"><path d="M42.9 -36.6C65 -20.7 98.8 -10.4 99.2 0.4C99.7 11.2 66.7 22.4 44.6 41.9C22.4 61.4 11.2 89.2 -4.3 93.5C-19.8 97.8 -39.7 78.6 -58.1 59.2C-76.5 39.7 -93.6 19.8 -93.2 0.4C-92.9 -19.1 -75.1 -38.2 -56.7 -54C-38.2 -69.9 -19.1 -82.5 -4.4 -78.1C10.4 -73.7 20.7 -52.4 42.9 -36.6Z" stroke="#3d3d3d" fill="none" stroke-width="3"></path></g><g transform="translate(1730 4988)"><path d="M80.8 -94.9C92.9 -68.8 82.7 -34.4 71.5 -11.3C60.2 11.9 47.9 23.7 35.8 42.9C23.7 62 11.9 88.4 -1.8 90.2C-15.4 91.9 -30.9 69.1 -59.2 50C-87.6 30.9 -128.8 15.4 -137 -8.2C-145.1 -31.8 -120.2 -63.5 -91.8 -89.6C-63.5 -115.8 -31.8 -136.3 1.3 -137.6C34.4 -138.9 68.8 -121 80.8 -94.9Z" stroke="#3d3d3d" fill="none" stroke-width="3"></path></g><g transform="translate(1176 2707)"><path d="M26.4 -41.7C33.1 -19.7 36.6 -9.9 44.6 8C52.6 25.9 65.2 51.8 58.5 59C51.8 66.2 25.9 54.6 -1.9 56.5C-29.6 58.3 -59.2 73.6 -76.2 66.4C-93.3 59.2 -97.7 29.6 -90.3 7.4C-82.9 -14.8 -63.7 -29.6 -46.7 -51.6C-29.6 -73.6 -14.8 -102.7 -2.5 -100.2C9.9 -97.8 19.7 -63.7 26.4 -41.7Z" stroke="#3d3d3d" fill="none" stroke-width="3"></path></g><g transform="translate(2081 7725)"><path d="M36.5 -42.4C43.3 -29.8 41.9 -14.9 50.4 8.5C59 31.9 77.4 63.9 70.6 86.9C63.9 110 31.9 124.1 3 121.2C-26 118.2 -52.1 98.1 -65.7 75.1C-79.3 52.1 -80.5 26 -76.8 3.7C-73.1 -18.6 -64.5 -37.3 -50.9 -49.9C-37.3 -62.5 -18.6 -69.1 -1.9 -67.2C14.9 -65.4 29.8 -55 36.5 -42.4Z" stroke="#3d3d3d" fill="none" stroke-width="3"></path></g><g transform="translate(516 7130)"><path d="M43.7 -49.2C50 -37.4 43.8 -18.7 42.8 -1.1C41.7 16.6 45.8 33.2 39.5 40C33.2 46.7 16.6 43.7 -5.1 48.7C-26.7 53.8 -53.4 67 -65.5 60.2C-77.6 53.4 -75.1 26.7 -73.2 1.9C-71.2 -22.9 -69.9 -45.7 -57.8 -57.5C-45.7 -69.3 -22.9 -70 -2.1 -67.9C18.7 -65.8 37.4 -61 43.7 -49.2Z" stroke="#3d3d3d" fill="none" stroke-width="3"></path></g><g transform="translate(365 3119)"><path d="M41 -48.9C48.6 -33.4 47.1 -16.7 44.5 -2.6C41.8 11.4 38.1 22.9 30.5 36.2C22.9 49.5 11.4 64.8 -3.9 68.7C-19.3 72.6 -38.5 65.2 -50.1 51.9C-61.6 38.5 -65.4 19.3 -61.3 4.1C-57.2 -11.1 -45.3 -22.2 -33.7 -37.6C-22.2 -53 -11.1 -72.8 2.8 -75.6C16.7 -78.4 33.4 -64.3 41 -48.9Z" stroke="#3d3d3d" fill="none" stroke-width="3"></path></g><g transform="translate(380 5220)"><path d="M81 -92.3C90.2 -71.8 72.8 -35.9 71.2 -1.5C69.7 32.8 84.1 65.6 74.9 75.3C65.6 85 32.8 71.6 -0.5 72.1C-33.8 72.5 -67.5 86.9 -74.6 77.2C-81.7 67.5 -62.1 33.8 -59.4 2.7C-56.7 -28.4 -70.9 -56.8 -63.9 -77.3C-56.8 -97.7 -28.4 -110.3 3.8 -114.1C35.9 -117.8 71.8 -112.7 81 -92.3Z" stroke="#3d3d3d" fill="none" stroke-width="3"></path></g><g transform="translate(2223 4906)"><path d="M73.2 -58.6C98.5 -48 125 -24 129.3 4.3C133.7 32.7 115.8 65.3 90.6 83.7C65.3 102.1 32.7 106.2 3.4 102.8C-25.8 99.3 -51.6 88.4 -77 70C-102.4 51.6 -127.4 25.8 -122.2 5.1C-117.1 -15.5 -81.9 -31.1 -56.5 -41.7C-31.1 -52.2 -15.5 -57.9 4.2 -62.1C24 -66.3 48 -69.1 73.2 -58.6Z" stroke="#3d3d3d" fill="none" stroke-width="3"></path></g><g transform="translate(945 6868)"><path d="M37.5 -35.6C50.7 -24.4 64.8 -12.2 73.1 8.3C81.4 28.8 84 57.7 70.8 66.6C57.7 75.6 28.8 64.8 4.5 60.3C-19.9 55.9 -39.8 57.8 -58.4 48.8C-77 39.8 -94.3 19.9 -88.9 5.4C-83.5 -9.1 -55.4 -18.2 -36.8 -29.4C-18.2 -40.5 -9.1 -53.8 1.6 -55.4C12.2 -57 24.4 -46.8 37.5 -35.6Z" stroke="#3d3d3d" fill="none" stroke-width="3"></path></g><g transform="translate(1885 376)"><path d="M92.5 -89.2C106.5 -78.5 95.2 -39.3 89.2 -5.9C83.3 27.4 82.8 54.8 68.8 82.9C54.8 111.1 27.4 139.9 -2.8 142.8C-33.1 145.6 -66.1 122.4 -75.5 94.2C-84.8 66.1 -70.4 33.1 -73.5 -3.1C-76.6 -39.2 -97.1 -78.4 -87.8 -89.1C-78.4 -99.8 -39.2 -82 0 -82C39.3 -82 78.5 -99.9 92.5 -89.2Z" stroke="#3d3d3d" fill="none" stroke-width="3"></path></g><g transform="translate(253 1496)"><path d="M44.2 -48.3C51.3 -37.1 47.1 -18.5 41.9 -5.1C36.8 8.2 30.8 16.5 23.6 25.3C16.5 34.2 8.2 43.6 -3.3 46.9C-14.9 50.2 -29.8 47.5 -50.4 38.6C-71 29.8 -97.3 14.9 -104.4 -7.1C-111.5 -29.1 -99.4 -58.2 -78.8 -69.4C-58.2 -80.7 -29.1 -74.1 -5.3 -68.8C18.5 -63.6 37.1 -59.6 44.2 -48.3Z" stroke="#3d3d3d" fill="none" stroke-width="3"></path></g><g transform="translate(2343 6986)"><path d="M77 -74.9C91.4 -62.7 88.7 -31.3 80.9 -7.9C73 15.6 59.8 31.1 45.5 46.9C31.1 62.7 15.6 78.7 2 76.8C-11.6 74.8 -23.2 54.8 -42.9 39C-62.6 23.2 -90.5 11.6 -95.9 -5.4C-101.3 -22.4 -84.3 -44.9 -64.6 -57.1C-44.9 -69.4 -22.4 -71.5 4.4 -76C31.3 -80.4 62.7 -87.2 77 -74.9Z" stroke="#3d3d3d" fill="none" stroke-width="3"></path></g><g transform="translate(1941 4125)"><path d="M27 -38.6C34.2 -19.8 38.7 -9.9 46.4 7.7C54.1 25.3 65 50.6 57.8 70.5C50.6 90.4 25.3 104.9 0.7 104.2C-23.9 103.6 -47.9 87.7 -66.5 67.8C-85.1 47.9 -98.4 23.9 -91.9 6.5C-85.4 -10.9 -59 -21.8 -40.4 -40.5C-21.8 -59.2 -10.9 -85.8 -0.5 -85.3C9.9 -84.8 19.8 -57.3 27 -38.6Z" stroke="#3d3d3d" fill="none" stroke-width="3"></path></g><g transform="translate(2346 4421)"><path d="M47.6 -45.6C69.8 -25.4 101.6 -12.7 107 5.5C112.5 23.6 91.6 47.2 69.4 61.5C47.2 75.9 23.6 81 4.1 76.9C-15.3 72.8 -30.7 59.4 -52.2 45C-73.7 30.7 -101.5 15.3 -103.3 -1.9C-105.2 -19.1 -81.2 -38.1 -59.7 -58.3C-38.1 -78.5 -19.1 -99.9 -3.2 -96.7C12.7 -93.5 25.4 -65.8 47.6 -45.6Z" stroke="#3d3d3d" fill="none" stroke-width="3"></path></g><g transform="translate(1557 5644)"><path d="M63.6 -49.5C91.5 -35.8 129.3 -17.9 127.1 -2.1C125 13.6 82.9 27.2 55.1 48.3C27.2 69.3 13.6 97.7 -12.6 110.3C-38.7 122.9 -77.5 119.5 -93 98.5C-108.6 77.5 -101 38.7 -100.1 1C-99.1 -36.8 -104.8 -73.6 -89.2 -87.3C-73.6 -101 -36.8 -91.5 -9.5 -82.1C17.9 -72.6 35.8 -63.2 63.6 -49.5Z" stroke="#3d3d3d" fill="none" stroke-width="3"></path></g><g transform="translate(1376 2160)"><path d="M83 -81.2C103.2 -62.9 111.9 -31.5 113.4 1.5C114.9 34.5 109.2 69 89.1 81C69 93.1 34.5 82.7 4.2 78.5C-26.1 74.3 -52.2 76.3 -75 64.2C-97.8 52.2 -117.4 26.1 -123.1 -5.7C-128.7 -37.4 -120.4 -74.8 -97.6 -93.1C-74.8 -111.3 -37.4 -110.5 -3 -107.6C31.5 -104.6 62.9 -99.5 83 -81.2Z" stroke="#3d3d3d" fill="none" stroke-width="3"></path></g><g transform="translate(973 907)"><path d="M55.6 -59.8C64 -47.3 56.9 -23.7 50.9 -6.1C44.8 11.5 39.6 23 31.3 27.5C23 32 11.5 29.5 -3.8 33.3C-19 37 -38 47 -48.5 42.5C-59.1 38 -61.3 19 -58 3.3C-54.6 -12.3 -45.8 -24.7 -35.2 -37.1C-24.7 -49.6 -12.3 -62.2 5.7 -67.8C23.7 -73.5 47.3 -72.2 55.6 -59.8Z" stroke="#3d3d3d" fill="none" stroke-width="3"></path></g><g transform="translate(416 4310)"><path d="M89.8 -86.4C115.8 -63.7 136 -31.9 137.1 1.1C138.3 34.1 120.3 68.3 94.3 85.7C68.3 103.1 34.1 103.8 11.9 91.9C-10.4 80.1 -20.8 55.6 -29.3 38.2C-37.9 20.8 -44.6 10.4 -45.6 -1.1C-46.7 -12.5 -42.1 -25 -33.6 -47.7C-25 -70.5 -12.5 -103.4 9.7 -113C31.9 -122.7 63.7 -109.1 89.8 -86.4Z" stroke="#3d3d3d" fill="none" stroke-width="3"></path></g><g transform="translate(549 6710)"><path d="M90.3 -86.8C113.5 -67.1 126.5 -33.5 129 2.5C131.5 38.5 123.5 77 100.3 106.8C77 136.5 38.5 157.5 9.2 148.3C-20 139 -40.1 99.6 -63.8 69.8C-87.6 40.1 -115 20 -123.6 -8.6C-132.2 -37.3 -122 -74.6 -98.3 -94.3C-74.6 -114 -37.3 -116.2 -1.9 -114.3C33.5 -112.4 67.1 -106.5 90.3 -86.8Z" stroke="#3d3d3d" fill="none" stroke-width="3"></path></g><g transform="translate(1228 514)"><path d="M65.7 -67C87.2 -44.2 108.1 -22.1 113.7 5.6C119.4 33.4 109.8 66.8 88.3 77C66.8 87.1 33.4 74 6.4 67.6C-20.7 61.3 -41.4 61.7 -67.5 51.5C-93.5 41.4 -124.9 20.7 -126 -1.1C-127.1 -22.9 -97.9 -45.7 -71.8 -68.5C-45.7 -91.3 -22.9 -114.1 -0.4 -113.7C22.1 -113.3 44.2 -89.8 65.7 -67Z" stroke="#3d3d3d" fill="none" stroke-width="3"></path></g><g transform="translate(2180 2441)"><path d="M63.1 -61.9C82.1 -44 98.2 -22 95.5 -2.7C92.9 16.7 71.5 33.4 52.4 47C33.4 60.7 16.7 71.4 2.3 69.1C-12.1 66.8 -24.2 51.6 -30.1 37.9C-35.9 24.2 -35.5 12.1 -37 -1.5C-38.5 -15.1 -41.9 -30.2 -36.1 -48.1C-30.2 -66 -15.1 -86.6 3.4 -90C22 -93.5 44 -79.7 63.1 -61.9Z" stroke="#3d3d3d" fill="none" stroke-width="3"></path></g><g transform="translate(1272 4445)"><path d="M71 -58.5C97 -45 126.5 -22.5 120.3 -6.2C114.1 10.1 72.1 20.1 46.1 27.6C20.1 35.1 10.1 40 -8 47.9C-26 55.9 -52 67 -76.9 59.5C-101.7 52 -125.3 26 -125.9 -0.5C-126.4 -27.1 -103.8 -54.1 -79 -67.6C-54.1 -81.1 -27.1 -81 -2.3 -78.7C22.5 -76.4 45 -71.9 71 -58.5Z" stroke="#3d3d3d" fill="none" stroke-width="3"></path></g><g transform="translate(1670 6858)"><path d="M62.4 -58.4C85 -39.8 110.3 -19.9 117.2 6.9C124 33.6 112.5 67.3 89.9 94.5C67.3 121.8 33.6 142.7 7.2 135.4C-19.2 128.2 -38.3 92.8 -48.5 65.6C-58.7 38.3 -60 19.2 -66.7 -6.8C-73.5 -32.7 -85.8 -65.4 -75.6 -84.1C-65.4 -102.7 -32.7 -107.3 -6.4 -100.9C19.9 -94.4 39.8 -77 62.4 -58.4Z" stroke="#3d3d3d" fill="none" stroke-width="3"></path></g><g transform="translate(584 806)"><path d="M30.6 -38.9C37.2 -23.9 38.7 -11.9 45.8 7.2C53 26.3 66 52.6 59.3 72.7C52.6 92.8 26.3 106.7 -1.1 107.8C-28.6 108.9 -57.1 97.3 -65.8 77.2C-74.5 57.1 -63.4 28.6 -63.3 0.1C-63.3 -28.4 -74.3 -56.8 -65.6 -71.9C-56.8 -86.9 -28.4 -88.5 -8.2 -80.2C11.9 -72 23.9 -53.9 30.6 -38.9Z" stroke="#3d3d3d" fill="none" stroke-width="3"></path></g><g transform="translate(889 3328)"><path d="M28.5 -30.3C38.9 -18.1 50.7 -9 58.2 7.6C65.8 24.2 69.2 48.4 58.8 65.3C48.4 82.1 24.2 91.6 5.8 85.9C-12.7 80.1 -25.3 59 -34.6 42.2C-43.9 25.3 -49.9 12.7 -47.1 2.7C-44.4 -7.2 -33 -14.4 -23.7 -26.6C-14.4 -38.8 -7.2 -56 0.9 -57C9 -57.9 18.1 -42.5 28.5 -30.3Z" stroke="#3d3d3d" fill="none" stroke-width="3"></path></g><g transform="translate(1238 5021)"><path d="M48.6 -57.9C66.4 -30.8 86.5 -15.4 98.6 12C110.6 39.4 114.5 78.9 96.7 90.3C78.9 101.8 39.4 85.2 8.4 76.8C-22.7 68.4 -45.3 68.2 -57.8 56.8C-70.3 45.3 -72.6 22.7 -68.9 3.7C-65.2 -15.2 -55.4 -30.4 -42.9 -57.5C-30.4 -84.6 -15.2 -123.6 0.1 -123.7C15.4 -123.8 30.8 -85 48.6 -57.9Z" stroke="#3d3d3d" fill="none" stroke-width="3"></path></g><g transform="translate(2073 6320)"><path d="M72 -68.4C84.1 -59.9 78.4 -30 75.7 -2.6C73.1 24.7 73.6 49.3 61.5 73.5C49.3 97.7 24.7 121.4 6.1 115.4C-12.6 109.3 -25.1 73.5 -50.6 49.3C-76 25.1 -114.3 12.6 -126 -11.6C-137.6 -35.8 -122.5 -71.7 -97.1 -80.1C-71.7 -88.6 -35.8 -69.7 -2.9 -66.8C30 -63.8 59.9 -76.9 72 -68.4Z" stroke="#3d3d3d" fill="none" stroke-width="3"></path></g><g transform="translate(1576 3176)"><path d="M47 -53.6C58.5 -35.5 63.8 -17.7 65.2 1.4C66.6 20.5 64.1 41 52.6 60.3C41 79.6 20.5 97.7 2.5 95.2C-15.5 92.7 -31 69.6 -41.1 50.3C-51.2 31 -55.9 15.5 -62.3 -6.4C-68.7 -28.2 -76.7 -56.5 -66.6 -74.6C-56.5 -92.6 -28.2 -100.5 -5.3 -95.3C17.7 -90 35.5 -71.6 47 -53.6Z" stroke="#3d3d3d" fill="none" stroke-width="3"></path></g><g transform="translate(376 2450)"><path d="M53.5 -56.6C66 -41.1 70.2 -20.6 68 -2.2C65.8 16.2 57.2 32.3 44.7 48.2C32.3 64 16.2 79.5 -0.6 80C-17.3 80.6 -34.5 66.2 -48 50.4C-61.5 34.5 -71.2 17.3 -65.7 5.5C-60.2 -6.2 -39.4 -12.4 -25.9 -27.8C-12.4 -43.3 -6.2 -68 7.2 -75.2C20.6 -82.3 41.1 -72 53.5 -56.6Z" stroke="#3d3d3d" fill="none" stroke-width="3"></path></g><g transform="translate(1787 6011)"><path d="M70.5 -66.8C90.2 -50.8 104.2 -25.4 103.3 -0.9C102.5 23.7 86.8 47.4 67.1 61.6C47.4 75.8 23.7 80.5 2.2 78.3C-19.3 76.1 -38.6 67 -52.9 52.8C-67.2 38.6 -76.5 19.3 -75.4 1C-74.4 -17.2 -63 -34.5 -48.7 -50.5C-34.5 -66.5 -17.2 -81.4 4.1 -85.5C25.4 -89.5 50.8 -82.9 70.5 -66.8Z" stroke="#3d3d3d" fill="none" stroke-width="3"></path></g><g transform="translate(579 2000)"><path d="M40.3 -34C60.6 -20.1 91 -10.1 95.5 4.5C100 19 78.4 37.9 58.2 53.6C37.9 69.3 19 81.6 -4.7 86.3C-28.4 91 -56.7 88 -81.3 72.4C-105.9 56.7 -126.7 28.4 -119 7.7C-111.3 -12.9 -75 -25.9 -50.5 -39.8C-25.9 -53.7 -12.9 -68.7 -1.4 -67.2C10.1 -65.8 20.1 -48 40.3 -34Z" stroke="#3d3d3d" fill="none" stroke-width="3"></path></g><g transform="translate(2137 5593)"><path d="M67.9 -80.9C77.9 -58 68.8 -29 62.4 -6.4C56 16.2 52.3 32.4 42.4 39C32.4 45.5 16.2 42.4 2.9 39.5C-10.5 36.7 -20.9 34 -32.3 27.5C-43.6 20.9 -55.9 10.5 -64.5 -8.6C-73 -27.6 -77.8 -55.1 -66.5 -78.1C-55.1 -101 -27.6 -119.4 0.7 -120.1C29 -120.8 58 -103.9 67.9 -80.9Z" stroke="#3d3d3d" fill="none" stroke-width="3"></path></g><g transform="translate(812 4907)"><path d="M39.6 -34C52.8 -26.4 66.1 -13.2 64.1 -2C62.1 9.2 44.8 18.4 31.6 33.9C18.4 49.4 9.2 71.2 -1.5 72.7C-12.1 74.1 -24.2 55.2 -39.8 39.7C-55.4 24.2 -74.5 12.1 -72.2 2.3C-69.9 -7.6 -46.3 -15.2 -30.8 -22.8C-15.2 -30.4 -7.6 -38 2.8 -40.8C13.2 -43.6 26.4 -41.6 39.6 -34Z" stroke="#3d3d3d" fill="none" stroke-width="3"></path></g><g transform="translate(299 5697)"><path d="M32.1 -37C38.6 -25.7 38.8 -12.8 38.5 -0.3C38.1 12.2 37.3 24.3 30.8 40.5C24.3 56.6 12.2 76.7 -4.7 81.4C-21.6 86.1 -43.1 75.4 -57.3 59.3C-71.4 43.1 -78.1 21.6 -76.3 1.8C-74.4 -17.9 -64.1 -35.8 -50 -47.2C-35.8 -58.5 -17.9 -63.3 -2.5 -60.7C12.8 -58.2 25.7 -48.3 32.1 -37Z" stroke="#3d3d3d" fill="none" stroke-width="3"></path></g><g transform="translate(1149 7749)"><path d="M74.4 -89.8C81.9 -66.9 63.5 -33.4 62.6 -0.9C61.7 31.7 78.3 63.3 70.8 83C63.3 102.6 31.7 110.3 10.5 99.8C-10.6 89.2 -21.3 60.6 -38.3 40.9C-55.4 21.3 -78.8 10.6 -84.3 -5.5C-89.7 -21.6 -77.2 -43.1 -60.2 -66.1C-43.1 -89 -21.6 -113.3 5.9 -119.3C33.4 -125.2 66.9 -112.8 74.4 -89.8Z" stroke="#3d3d3d" fill="none" stroke-width="3"></path></g><g transform="translate(1984 3255)"><path d="M55.2 -43.6C76.8 -33.7 103 -16.8 107.9 4.9C112.8 26.7 96.5 53.4 74.9 70.8C53.4 88.3 26.7 96.5 -5.8 102.3C-38.4 108.2 -76.8 111.7 -88.5 94.2C-100.3 76.8 -85.4 38.4 -75.7 9.7C-66 -19 -61.5 -38 -49.8 -47.9C-38 -57.8 -19 -58.6 -1.1 -57.5C16.8 -56.4 33.7 -53.5 55.2 -43.6Z" stroke="#3d3d3d" fill="none" stroke-width="3"></path></g><g transform="translate(2143 1325)"><path d="M38.5 -36.8C51.3 -25.8 64 -12.9 63.2 -0.8C62.4 11.3 48.2 22.7 35.5 34.8C22.7 46.9 11.3 59.7 -4.5 64.2C-20.3 68.7 -40.6 64.8 -56.9 52.7C-73.3 40.6 -85.6 20.3 -80.7 5C-75.7 -10.4 -53.4 -20.8 -37.1 -31.8C-20.8 -42.9 -10.4 -54.6 1.3 -55.8C12.9 -57.1 25.8 -47.9 38.5 -36.8Z" stroke="#3d3d3d" fill="none" stroke-width="3"></path></g><g transform="translate(872 4169)"><path d="M69.1 -83.3C81.3 -56.9 77.4 -28.4 77.8 0.4C78.3 29.3 83.1 58.7 70.9 73.9C58.7 89.2 29.3 90.4 -2.6 93.1C-34.6 95.7 -69.2 99.8 -91.7 84.5C-114.2 69.2 -124.6 34.6 -114.5 10.1C-104.5 -14.4 -73.9 -28.9 -51.4 -55.3C-28.9 -81.7 -14.4 -120.2 7 -127.2C28.4 -134.2 56.9 -109.7 69.1 -83.3Z" stroke="#3d3d3d" fill="none" stroke-width="3"></path></g><g transform="translate(1529 925)"><path d="M94.1 -89.8C106.1 -82.1 89 -41.1 77.4 -11.6C65.8 17.9 59.8 35.8 47.8 57.9C35.8 80 17.9 106.4 -7.8 114.2C-33.5 122 -67 111.3 -77.8 89.1C-88.6 67 -76.7 33.5 -65.3 11.5C-53.8 -10.6 -42.8 -21.2 -32 -28.8C-21.2 -36.5 -10.6 -41.2 15.2 -56.4C41.1 -71.6 82.1 -97.4 94.1 -89.8Z" stroke="#3d3d3d" fill="none" stroke-width="3"></path></g><g transform="translate(1233 7148)"><path d="M48.9 -63.9C58.2 -39.6 56.9 -19.8 60.5 3.6C64.1 27 72.6 54 63.3 80.4C54 106.7 27 132.3 -0.7 133C-28.5 133.8 -57 109.6 -67.5 83.3C-78 57 -70.5 28.5 -75.1 -4.7C-79.8 -37.8 -96.7 -75.7 -86.2 -99.9C-75.7 -124.1 -37.8 -134.8 -9 -125.7C19.8 -116.7 39.6 -88.1 48.9 -63.9Z" stroke="#3d3d3d" fill="none" stroke-width="3"></path></g><g transform="translate(2359 3012)"><path d="M38.2 -44.3C49.6 -26.7 59.1 -13.4 57.5 -1.6C55.9 10.2 43.3 20.5 31.9 40.1C20.5 59.8 10.2 88.9 -11.2 100.1C-32.6 111.3 -65.3 104.6 -72.7 85C-80.1 65.3 -62.3 32.6 -51.7 10.6C-41.1 -11.4 -37.6 -22.8 -30.2 -40.3C-22.8 -57.9 -11.4 -81.7 1 -82.7C13.4 -83.7 26.7 -61.9 38.2 -44.3Z" stroke="#3d3d3d" fill="none" stroke-width="3"></path></g><g transform="translate(1866 3715)"><path d="M52 -48.4C74.7 -29.4 105.3 -14.7 108.2 2.9C111.1 20.5 86.3 41 63.7 58.5C41 75.9 20.5 90.3 5.1 85.2C-10.3 80.1 -20.7 55.6 -29.6 38.1C-38.5 20.7 -46.1 10.3 -57.2 -11.2C-68.4 -32.7 -83.2 -65.4 -74.3 -84.4C-65.4 -103.4 -32.7 -108.7 -9 -99.7C14.7 -90.7 29.4 -67.4 52 -48.4Z" stroke="#3d3d3d" fill="none" stroke-width="3"></path></g></g></svg>